<svg width="24" height="19" viewBox="0 0 24 19" fill="none" xmlns="http://www.w3.org/2000/svg">
<g clip-path="url(#clip0_240_193)">
<path fill-rule="evenodd" clip-rule="evenodd" d="M1.74609 0H22.2539C23.2148 0 24 0.785156 24 1.74609C24 2.70703 23.2148 3.49219 22.2539 3.49219H1.74609C0.785156 3.49219 0 2.70703 0 1.74609C0 0.785156 0.785156 0 1.74609 0ZM1.74609 15.248H22.2539C23.2148 15.248 24 16.0332 24 16.9941C24 17.9551 23.2148 18.7402 22.2539 18.7402H1.74609C0.785156 18.7402 0 17.9551 0 16.9941C0 16.0332 0.785156 15.248 1.74609 15.248ZM1.74609 7.62305H22.2539C23.2148 7.62305 24 8.4082 24 9.36914C24 10.3301 23.2148 11.1152 22.2539 11.1152H1.74609C0.785156 11.1152 0 10.3301 0 9.36914C0 8.41016 0.785156 7.62305 1.74609 7.62305Z" fill="white"/>
</g>
<defs>
<clipPath id="clip0_240_193">
<rect width="24" height="18.7402" fill="white"/>
</clipPath>
</defs>
</svg>
